<svg xmlns="http://www.w3.org/2000/svg" version="1.1" xmlns:xlink="http://www.w3.org/1999/xlink" xmlns:svgjs="http://svgjs.com/svgjs" width="1440" height="900" preserveAspectRatio="none" viewBox="0 0 1440 900"><g mask="url(&quot;#SvgjsMask1014&quot;)" fill="none"><rect width="1440" height="900" x="0" y="0" fill="rgba(173, 231, 146, 1)"></rect><path d="M0,472.614C113.215,495.79,229.242,567.115,335.947,522.744C443.929,477.842,505.054,358.438,541.668,247.372C576.201,142.62,565.321,28.912,533.566,-76.715C504.79,-172.434,437.729,-247.068,370.726,-321.236C305.047,-393.939,236.935,-462.786,147.883,-503.643C48.593,-549.198,-60.112,-591.634,-166.727,-567.82C-275.731,-543.472,-361.659,-461.076,-431.803,-374.16C-500.264,-289.329,-551.624,-189.203,-559.997,-80.515C-568.091,24.56,-533.422,128.755,-477.421,218.031C-425.723,300.447,-343.676,355.416,-257.831,401.193C-177.513,444.022,-89.175,454.359,0,472.614" fill="#7fd954"></path><path d="M1440 1455.9569999999999C1542.22 1459.137 1610.879 1354.9189999999999 1694.751 1296.4 1774.941 1240.449 1890.4470000000001 1212.623 1921.595 1119.937 1952.829 1026.994 1863.622 938.13 1847.661 841.387 1832.1779999999999 747.54 1887.995 637.489 1829.6100000000001 562.4010000000001 1771.383 487.517 1658.483 487.655 1564.239 476.882 1482.461 467.534 1404.456 487.693 1323.898 504.592 1236.021 523.0260000000001 1130.55 513.057 1071.084 580.332 1011.5989999999999 647.6279999999999 1022.721 750.883 1026.8890000000001 840.604 1030.483 917.967 1065.627 986 1093.288 1058.338 1123.031 1136.12 1140.507 1218.095 1195.2359999999999 1280.8600000000001 1262.527 1358.031 1337.661 1452.7730000000001 1440 1455.9569999999999" fill="#dcf5d0"></path></g><defs><mask id="SvgjsMask1014"><rect width="1440" height="900" fill="#ffffff"></rect></mask></defs></svg>